<svg version="1.0" xmlns="http://www.w3.org/2000/svg" preserveAspectRatio="none" viewBox="70 8 1140.02 590.02">
  <path d="M70 303v295h14V8H70v295zm24 0v295h6V8h-6v295zm23 0v295h6V8h-6v295zm40 0v295h29V8h-29v295zm39 0v295h6V8h-6v295zm16 0v295h22V8h-22v295zm32 0v295h21V8h-21v295zm31 0v295h6V8h-6v295zm31 0v295h14V8h-14v295zm24 0v295h6V8h-6v295zm39 0v295h14V8h-14v295zm24 0v295h6V8h-6v295zm24 0v295h13V8h-13v295zm47 0v295h6V8h-6v295zm24 0v295h6V8h-6v295zm16 0v295h5V8h-5v295zm39 0v295h14V8h-14v295zm23 0v295h6V8h-6v295zm24 0v295h6V8h-6v295zm16 0v295h6V8h-6v295zm23 0v295h30V8h-30v295zm48 0v295h6V8h-6v295zm16 0v295h13V8h-13v295zm31 0v295h6V8h-6v295zm39 0v295h6V8h-6v295zm39 0v295h6V8h-6v295zm24 0v295h14V8h-14v295zm24 0v295h6V8h-6v295zm39 0v295h14V8h-14v295zm24 0v295h6V8h-6v295zm23.5 0v295h5.5V8h-5.5v295zm23.5 0v295h6V8h-6v295zm16 0v295h14V8h-14v295zm47 0v295h6V8h-6v295zm16 0v295h29V8h-29v295zm39 0v295h22V8h-22v295zm32 0v295h14V8h-14v295zm39 0v295h22V8h-22v295zm31 0v295h6V8h-6v295zm16 0v295h14V8h-14v295z"/>
</svg>
